<mxfile host="Electron" modified="2023-11-14T09:11:05.290Z" agent="Mozilla/5.0 (Windows NT 10.0; Win64; x64) AppleWebKit/537.36 (KHTML, like Gecko) draw.io/22.0.3 Chrome/114.0.5735.289 Electron/25.8.4 Safari/537.36" etag="lSZzZmh_CTbETONfXGje" version="22.0.3" type="device">
  <diagram name="PÃ¡gina-1" id="gXFmd8Pl4dVpZkX6u5_r">
    <mxGraphModel dx="1059" dy="692" grid="1" gridSize="10" guides="1" tooltips="1" connect="1" arrows="1" fold="1" page="1" pageScale="1" pageWidth="827" pageHeight="1169" math="0" shadow="0">
      <root>
        <mxCell id="0" />
        <mxCell id="1" parent="0" />
        <mxCell id="BgC6ItMGSIDItKIl8nBi-3" value="" style="sketch=0;points=[[0.015,0.015,0],[0.985,0.015,0],[0.985,0.985,0],[0.015,0.985,0],[0.25,0,0],[0.5,0,0],[0.75,0,0],[1,0.25,0],[1,0.5,0],[1,0.75,0],[0.75,1,0],[0.5,1,0],[0.25,1,0],[0,0.75,0],[0,0.5,0],[0,0.25,0]];verticalLabelPosition=bottom;html=1;verticalAlign=top;aspect=fixed;align=center;pointerEvents=1;shape=mxgraph.cisco19.server;fillColor=#005073;strokeColor=none;" parent="1" vertex="1">
          <mxGeometry x="368.5" y="170" width="77.5" height="140.91" as="geometry" />
        </mxCell>
        <mxCell id="BgC6ItMGSIDItKIl8nBi-12" value="" style="ellipse;whiteSpace=wrap;html=1;fillColor=#ffe6cc;strokeColor=#d79b00;" parent="1" vertex="1">
          <mxGeometry x="354" y="200" width="120" height="80" as="geometry" />
        </mxCell>
        <mxCell id="BgC6ItMGSIDItKIl8nBi-2" value="" style="shape=mxgraph.cisco.computers_and_peripherals.laptop;sketch=0;html=1;pointerEvents=1;dashed=0;fillColor=#036897;strokeColor=#ffffff;strokeWidth=2;verticalLabelPosition=bottom;verticalAlign=top;align=center;outlineConnect=0;" parent="1" vertex="1">
          <mxGeometry x="100" y="210" width="90" height="61" as="geometry" />
        </mxCell>
        <mxCell id="BgC6ItMGSIDItKIl8nBi-5" value="User" style="text;html=1;strokeColor=none;fillColor=none;align=center;verticalAlign=middle;whiteSpace=wrap;rounded=0;" parent="1" vertex="1">
          <mxGeometry x="110" y="280.91" width="60" height="30" as="geometry" />
        </mxCell>
        <mxCell id="BgC6ItMGSIDItKIl8nBi-6" value="REST API" style="text;html=1;strokeColor=none;fillColor=none;align=center;verticalAlign=middle;whiteSpace=wrap;rounded=0;" parent="1" vertex="1">
          <mxGeometry x="384" y="227" width="60" height="30" as="geometry" />
        </mxCell>
        <mxCell id="BgC6ItMGSIDItKIl8nBi-7" value="" style="shape=mxgraph.cisco.computers_and_peripherals.laptop;sketch=0;html=1;pointerEvents=1;dashed=0;fillColor=#036897;strokeColor=#ffffff;strokeWidth=2;verticalLabelPosition=bottom;verticalAlign=top;align=center;outlineConnect=0;" parent="1" vertex="1">
          <mxGeometry x="120" y="40" width="90" height="61" as="geometry" />
        </mxCell>
        <mxCell id="BgC6ItMGSIDItKIl8nBi-8" value="Volunteer" style="text;html=1;strokeColor=none;fillColor=none;align=center;verticalAlign=middle;whiteSpace=wrap;rounded=0;" parent="1" vertex="1">
          <mxGeometry x="130" y="110.91000000000003" width="60" height="30" as="geometry" />
        </mxCell>
        <mxCell id="BgC6ItMGSIDItKIl8nBi-9" value="" style="shape=mxgraph.cisco.computers_and_peripherals.laptop;sketch=0;html=1;pointerEvents=1;dashed=0;fillColor=#036897;strokeColor=#ffffff;strokeWidth=2;verticalLabelPosition=bottom;verticalAlign=top;align=center;outlineConnect=0;" parent="1" vertex="1">
          <mxGeometry x="130" y="350" width="90" height="61" as="geometry" />
        </mxCell>
        <mxCell id="BgC6ItMGSIDItKIl8nBi-10" value="Admin" style="text;html=1;strokeColor=none;fillColor=none;align=center;verticalAlign=middle;whiteSpace=wrap;rounded=0;" parent="1" vertex="1">
          <mxGeometry x="140" y="420.91" width="60" height="30" as="geometry" />
        </mxCell>
        <mxCell id="BgC6ItMGSIDItKIl8nBi-17" value="" style="rounded=1;whiteSpace=wrap;html=1;fillColor=#f5f5f5;strokeColor=#666666;fontColor=#333333;" parent="1" vertex="1">
          <mxGeometry x="450" y="530" width="210" height="110" as="geometry" />
        </mxCell>
        <mxCell id="BgC6ItMGSIDItKIl8nBi-18" value="&lt;b&gt;PUT&lt;/b&gt;&amp;nbsp;&lt;br&gt;&lt;b&gt;Admin :&amp;nbsp;&lt;/b&gt;&amp;nbsp;&lt;br style=&quot;border-color: var(--border-color);&quot;&gt;- validate request&lt;br&gt;- give reason of request denial&amp;nbsp;&lt;br&gt;- update request status" style="text;html=1;strokeColor=none;fillColor=none;align=left;verticalAlign=middle;whiteSpace=wrap;rounded=0;" parent="1" vertex="1">
          <mxGeometry x="471" y="540.9100000000001" width="170" height="89.09" as="geometry" />
        </mxCell>
        <mxCell id="BgC6ItMGSIDItKIl8nBi-26" value="" style="shape=flexArrow;endArrow=classic;startArrow=classic;html=1;rounded=0;fillColor=#ffe6cc;strokeColor=#d79b00;" parent="1" source="BgC6ItMGSIDItKIl8nBi-2" edge="1">
          <mxGeometry width="100" height="100" relative="1" as="geometry">
            <mxPoint x="202" y="300" as="sourcePoint" />
            <mxPoint x="350" y="240" as="targetPoint" />
          </mxGeometry>
        </mxCell>
        <mxCell id="BgC6ItMGSIDItKIl8nBi-27" value="" style="shape=flexArrow;endArrow=classic;startArrow=classic;html=1;rounded=0;fillColor=#ffe6cc;strokeColor=#d79b00;" parent="1" edge="1">
          <mxGeometry width="100" height="100" relative="1" as="geometry">
            <mxPoint x="230" y="370" as="sourcePoint" />
            <mxPoint x="350" y="270" as="targetPoint" />
          </mxGeometry>
        </mxCell>
        <mxCell id="BgC6ItMGSIDItKIl8nBi-28" value="" style="shape=flexArrow;endArrow=classic;startArrow=classic;html=1;rounded=0;fillColor=#ffe6cc;strokeColor=#d79b00;" parent="1" edge="1">
          <mxGeometry width="100" height="100" relative="1" as="geometry">
            <mxPoint x="220" y="70" as="sourcePoint" />
            <mxPoint x="350" y="180" as="targetPoint" />
          </mxGeometry>
        </mxCell>
        <mxCell id="BgC6ItMGSIDItKIl8nBi-38" value="Server" style="text;html=1;strokeColor=none;fillColor=none;align=center;verticalAlign=middle;whiteSpace=wrap;rounded=0;" parent="1" vertex="1">
          <mxGeometry x="377.25" y="170" width="60" height="30" as="geometry" />
        </mxCell>
        <mxCell id="OEpU-deIh2kAZYTxQja9-1" value="REST Requests and Responses" style="text;html=1;strokeColor=#d79b00;fillColor=#ffe6cc;align=center;verticalAlign=middle;whiteSpace=wrap;rounded=0;" parent="1" vertex="1">
          <mxGeometry x="180" y="160" width="110" height="50" as="geometry" />
        </mxCell>
        <mxCell id="OEpU-deIh2kAZYTxQja9-2" value="" style="endArrow=classic;html=1;rounded=0;fillColor=#f8cecc;strokeColor=#b85450;strokeWidth=4;" parent="1" edge="1">
          <mxGeometry width="50" height="50" relative="1" as="geometry">
            <mxPoint x="220" y="357" as="sourcePoint" />
            <mxPoint x="320" y="267" as="targetPoint" />
          </mxGeometry>
        </mxCell>
        <mxCell id="OEpU-deIh2kAZYTxQja9-4" value="Authentication" style="text;html=1;strokeColor=#b85450;fillColor=#f8cecc;align=center;verticalAlign=middle;whiteSpace=wrap;rounded=0;" parent="1" vertex="1">
          <mxGeometry x="310" y="55.5" width="100" height="30" as="geometry" />
        </mxCell>
        <mxCell id="OEpU-deIh2kAZYTxQja9-5" value="" style="rounded=1;whiteSpace=wrap;html=1;fillColor=#f5f5f5;strokeColor=#666666;fontColor=#333333;" parent="1" vertex="1">
          <mxGeometry x="450" y="650" width="210" height="190" as="geometry" />
        </mxCell>
        <mxCell id="OEpU-deIh2kAZYTxQja9-6" value="&lt;b&gt;POST&lt;/b&gt;&lt;br&gt;&lt;b&gt;Users:&lt;/b&gt;&lt;br&gt;-&amp;nbsp;add new user&lt;br&gt;- add request&lt;br&gt;- add feedback&amp;nbsp;&lt;br style=&quot;border-color: var(--border-color);&quot;&gt;&lt;b&gt;Volunteers:&amp;nbsp;&lt;/b&gt;&lt;br&gt;- add new volunteer&amp;nbsp;&lt;br&gt;- add feedback&amp;nbsp;&lt;br&gt;&lt;b&gt;Admin:&amp;nbsp;&lt;br&gt;&lt;/b&gt;- add new admin&amp;nbsp;&lt;br style=&quot;border-color: var(--border-color);&quot;&gt;" style="text;html=1;align=left;verticalAlign=middle;whiteSpace=wrap;rounded=0;" parent="1" vertex="1">
          <mxGeometry x="471" y="664.9100000000001" width="170" height="159.09" as="geometry" />
        </mxCell>
        <mxCell id="OEpU-deIh2kAZYTxQja9-7" value="" style="rounded=1;whiteSpace=wrap;html=1;fillColor=#f5f5f5;strokeColor=#666666;fontColor=#333333;" parent="1" vertex="1">
          <mxGeometry x="682" y="530" width="210" height="120" as="geometry" />
        </mxCell>
        <mxCell id="OEpU-deIh2kAZYTxQja9-8" value="&lt;b&gt;DELETE&lt;/b&gt;&lt;br&gt;&lt;b&gt;Admin:&lt;/b&gt;&lt;br&gt;- delete request&lt;br&gt;- delete user&lt;br&gt;- delete volunteer" style="text;html=1;strokeColor=none;fillColor=none;align=left;verticalAlign=middle;whiteSpace=wrap;rounded=0;" parent="1" vertex="1">
          <mxGeometry x="702" y="543" width="170" height="87" as="geometry" />
        </mxCell>
        <mxCell id="OEpU-deIh2kAZYTxQja9-9" value="" style="rounded=1;whiteSpace=wrap;html=1;fillColor=#f5f5f5;strokeColor=#666666;fontColor=#333333;" parent="1" vertex="1">
          <mxGeometry x="682" y="680" width="210" height="160" as="geometry" />
        </mxCell>
        <mxCell id="OEpU-deIh2kAZYTxQja9-10" value="&lt;b&gt;GET&lt;br&gt;Users:&amp;nbsp;&lt;/b&gt;&lt;br&gt;- get requests&amp;nbsp;&lt;br&gt;&lt;b&gt;Volunteers :&amp;nbsp;&lt;/b&gt;&lt;br&gt;- get requests&amp;nbsp;&lt;br style=&quot;border-color: var(--border-color);&quot;&gt;&lt;b&gt;Admin:&amp;nbsp;&lt;br&gt;&lt;/b&gt;- get requests&amp;nbsp;&lt;br&gt;- get users&lt;br&gt;- get volunteers" style="text;html=1;align=left;verticalAlign=middle;whiteSpace=wrap;rounded=0;" parent="1" vertex="1">
          <mxGeometry x="703" y="700.91" width="170" height="119.09" as="geometry" />
        </mxCell>
        <mxCell id="7OMzvZL8GsMiW6_qANO9-1" value="MICROSERVICE" style="rounded=1;whiteSpace=wrap;html=1;" parent="1" vertex="1">
          <mxGeometry x="40" y="555" width="120" height="60" as="geometry" />
        </mxCell>
        <mxCell id="7OMzvZL8GsMiW6_qANO9-2" value="&lt;font style=&quot;font-size: 18px;&quot;&gt;LEGEND&lt;/font&gt;" style="text;html=1;strokeColor=none;fillColor=none;align=center;verticalAlign=middle;whiteSpace=wrap;rounded=0;fontStyle=1" parent="1" vertex="1">
          <mxGeometry x="50" y="510" width="60" height="30" as="geometry" />
        </mxCell>
        <mxCell id="7OMzvZL8GsMiW6_qANO9-3" value="&lt;b&gt;Discovering&lt;/b&gt;" style="rounded=1;whiteSpace=wrap;html=1;fillColor=#ffe6cc;strokeColor=#d79b00;" parent="1" vertex="1">
          <mxGeometry x="551" y="209" width="120" height="60" as="geometry" />
        </mxCell>
        <mxCell id="7OMzvZL8GsMiW6_qANO9-4" value="&lt;b&gt;Database&lt;/b&gt;" style="rounded=1;whiteSpace=wrap;html=1;fillColor=#ffe6cc;strokeColor=#d79b00;" parent="1" vertex="1">
          <mxGeometry x="551" y="129" width="120" height="60" as="geometry" />
        </mxCell>
        <mxCell id="7OMzvZL8GsMiW6_qANO9-8" value="Reminder: REST methods of the API" style="swimlane;whiteSpace=wrap;html=1;fillColor=#f5f5f5;fontColor=#333333;strokeColor=#666666;" parent="1" vertex="1">
          <mxGeometry x="410" y="490" width="520" height="360" as="geometry" />
        </mxCell>
        <mxCell id="7OMzvZL8GsMiW6_qANO9-9" value="&lt;b&gt;&lt;font style=&quot;font-size: 13px;&quot;&gt;General services&lt;/font&gt;&lt;/b&gt;" style="text;html=1;strokeColor=none;fillColor=none;align=center;verticalAlign=middle;whiteSpace=wrap;rounded=0;" parent="1" vertex="1">
          <mxGeometry x="559" y="79" width="110" height="30" as="geometry" />
        </mxCell>
        <mxCell id="7OMzvZL8GsMiW6_qANO9-23" value="&lt;b&gt;&lt;font style=&quot;font-size: 13px;&quot;&gt;Other&lt;/font&gt;&lt;/b&gt;" style="text;html=1;strokeColor=none;fillColor=none;align=center;verticalAlign=middle;whiteSpace=wrap;rounded=0;" parent="1" vertex="1">
          <mxGeometry x="555" y="286" width="108" height="30" as="geometry" />
        </mxCell>
        <mxCell id="7OMzvZL8GsMiW6_qANO9-29" value="" style="endArrow=classic;html=1;rounded=0;fillColor=#f8cecc;strokeColor=#b85450;strokeWidth=4;" parent="1" edge="1">
          <mxGeometry width="50" height="50" relative="1" as="geometry">
            <mxPoint x="240" y="50" as="sourcePoint" />
            <mxPoint x="360" y="150" as="targetPoint" />
          </mxGeometry>
        </mxCell>
        <mxCell id="7OMzvZL8GsMiW6_qANO9-31" value="" style="endArrow=classic;html=1;rounded=0;fillColor=#f8cecc;strokeColor=#b85450;strokeWidth=4;" parent="1" edge="1">
          <mxGeometry width="50" height="50" relative="1" as="geometry">
            <mxPoint x="200" y="257" as="sourcePoint" />
            <mxPoint x="320" y="257" as="targetPoint" />
          </mxGeometry>
        </mxCell>
        <mxCell id="7OMzvZL8GsMiW6_qANO9-37" value="Distributed microservices" style="swimlane;whiteSpace=wrap;html=1;fillColor=#ffe6cc;strokeColor=#d79b00;" parent="1" vertex="1">
          <mxGeometry x="522" y="39" width="900" height="380" as="geometry" />
        </mxCell>
        <mxCell id="7OMzvZL8GsMiW6_qANO9-5" value="&lt;font color=&quot;#ffffff&quot;&gt;&lt;b&gt;Authentication&lt;/b&gt;&lt;/font&gt;" style="rounded=1;whiteSpace=wrap;html=1;fillColor=#b85450;strokeColor=#f8cecc;" parent="7OMzvZL8GsMiW6_qANO9-37" vertex="1">
          <mxGeometry x="29" y="300" width="120" height="60" as="geometry" />
        </mxCell>
        <mxCell id="7OMzvZL8GsMiW6_qANO9-33" value="&lt;div style=&quot;text-align: left;&quot;&gt;&lt;span style=&quot;background-color: initial;&quot;&gt;&lt;b&gt;Users Management&lt;/b&gt;&lt;/span&gt;&lt;/div&gt;&lt;div style=&quot;text-align: left;&quot;&gt;&lt;span style=&quot;background-color: initial;&quot;&gt;- get users&lt;/span&gt;&lt;/div&gt;&lt;div style=&quot;text-align: left;&quot;&gt;&lt;span style=&quot;background-color: initial;&quot;&gt;- delete user&lt;/span&gt;&lt;/div&gt;&lt;div style=&quot;text-align: left;&quot;&gt;&lt;span style=&quot;background-color: initial;&quot;&gt;- add user&lt;/span&gt;&lt;/div&gt;" style="rounded=1;whiteSpace=wrap;html=1;fillColor=#dae8fc;strokeColor=#6c8ebf;" parent="7OMzvZL8GsMiW6_qANO9-37" vertex="1">
          <mxGeometry x="257" y="80" width="150" height="80" as="geometry" />
        </mxCell>
        <mxCell id="oHwHor7oDIWWr1GPhA6g-5" value="&lt;b&gt;&lt;font style=&quot;font-size: 13px;&quot;&gt;Application services&lt;/font&gt;&lt;/b&gt;" style="text;html=1;strokeColor=none;fillColor=none;align=center;verticalAlign=middle;whiteSpace=wrap;rounded=0;" vertex="1" parent="7OMzvZL8GsMiW6_qANO9-37">
          <mxGeometry x="250" y="40" width="170" height="30" as="geometry" />
        </mxCell>
        <mxCell id="oHwHor7oDIWWr1GPhA6g-3" value="&lt;div style=&quot;text-align: left;&quot;&gt;&lt;span style=&quot;background-color: initial;&quot;&gt;&lt;b&gt;Feedback Management&lt;/b&gt;&lt;/span&gt;&lt;/div&gt;&lt;div style=&quot;text-align: left;&quot;&gt;&lt;span style=&quot;background-color: initial;&quot;&gt;- get feedbacks&lt;/span&gt;&lt;/div&gt;&lt;div style=&quot;text-align: left;&quot;&gt;&lt;span style=&quot;background-color: initial;&quot;&gt;- delete feedback&lt;/span&gt;&lt;/div&gt;&lt;div style=&quot;text-align: left;&quot;&gt;&lt;span style=&quot;background-color: initial;&quot;&gt;- add feedback&lt;/span&gt;&lt;/div&gt;" style="rounded=1;whiteSpace=wrap;html=1;fillColor=#d5e8d4;strokeColor=#82b366;" vertex="1" parent="7OMzvZL8GsMiW6_qANO9-37">
          <mxGeometry x="440" y="80" width="150" height="80" as="geometry" />
        </mxCell>
        <mxCell id="oHwHor7oDIWWr1GPhA6g-1" value="&lt;div style=&quot;text-align: left;&quot;&gt;&lt;span style=&quot;background-color: initial;&quot;&gt;&lt;b&gt;Volunteers Management&lt;/b&gt;&lt;/span&gt;&lt;/div&gt;&lt;div style=&quot;text-align: left;&quot;&gt;&lt;span style=&quot;background-color: initial;&quot;&gt;- get volunteers&lt;/span&gt;&lt;/div&gt;&lt;div style=&quot;text-align: left;&quot;&gt;&lt;span style=&quot;background-color: initial;&quot;&gt;- delete volunteer&lt;/span&gt;&lt;/div&gt;&lt;div style=&quot;text-align: left;&quot;&gt;&lt;span style=&quot;background-color: initial;&quot;&gt;- add volunteer&lt;/span&gt;&lt;/div&gt;" style="rounded=1;whiteSpace=wrap;html=1;fillColor=#fff2cc;strokeColor=#d6b656;" vertex="1" parent="7OMzvZL8GsMiW6_qANO9-37">
          <mxGeometry x="620" y="80" width="150" height="80" as="geometry" />
        </mxCell>
        <mxCell id="oHwHor7oDIWWr1GPhA6g-2" value="&lt;div style=&quot;text-align: left;&quot;&gt;&lt;span style=&quot;background-color: initial;&quot;&gt;&lt;b&gt;Request Management&lt;/b&gt;&lt;/span&gt;&lt;/div&gt;&lt;div style=&quot;text-align: left;&quot;&gt;&lt;span style=&quot;background-color: initial;&quot;&gt;- get requests&lt;/span&gt;&lt;/div&gt;&lt;div style=&quot;text-align: left;&quot;&gt;&lt;span style=&quot;background-color: initial;&quot;&gt;- delete request&lt;/span&gt;&lt;/div&gt;&lt;div style=&quot;text-align: left;&quot;&gt;&lt;span style=&quot;background-color: initial;&quot;&gt;- add request&lt;/span&gt;&lt;/div&gt;&lt;div style=&quot;text-align: left;&quot;&gt;&lt;span style=&quot;background-color: initial;&quot;&gt;- validate / reject request&lt;/span&gt;&lt;/div&gt;" style="rounded=1;whiteSpace=wrap;html=1;fillColor=#e1d5e7;strokeColor=#9673a6;" vertex="1" parent="7OMzvZL8GsMiW6_qANO9-37">
          <mxGeometry x="257" y="190" width="150" height="80" as="geometry" />
        </mxCell>
        <mxCell id="oHwHor7oDIWWr1GPhA6g-4" value="&lt;div style=&quot;text-align: left;&quot;&gt;&lt;span style=&quot;background-color: initial;&quot;&gt;&lt;b&gt;Admin Management&lt;/b&gt;&lt;/span&gt;&lt;/div&gt;&lt;div style=&quot;text-align: left;&quot;&gt;&lt;span style=&quot;background-color: initial;&quot;&gt;- add admin&amp;nbsp;&lt;/span&gt;&lt;/div&gt;&lt;div style=&quot;text-align: left;&quot;&gt;&lt;span style=&quot;background-color: initial;&quot;&gt;- delete admin&amp;nbsp;&lt;/span&gt;&lt;/div&gt;" style="rounded=1;whiteSpace=wrap;html=1;fillColor=#f8cecc;strokeColor=#b85450;" vertex="1" parent="7OMzvZL8GsMiW6_qANO9-37">
          <mxGeometry x="440" y="190" width="150" height="80" as="geometry" />
        </mxCell>
      </root>
    </mxGraphModel>
  </diagram>
</mxfile>
